HIERARCHY
ROOT hip
{
	OFFSET 0.000000 0.000000 0.000000 
	CHANNELS 6 Xposition Yposition Zposition Xrotation Zrotation Yrotation
	JOINT abdomen
	{
		OFFSET 0.000000 3.402643 0.000000 
		CHANNELS 3 Xrotation Zrotation Yrotation
		JOINT chest
		{
			OFFSET 0.000000 8.438565 -0.680529 
			CHANNELS 3 Xrotation Zrotation Yrotation
			JOINT neck
			{
				OFFSET 0.000000 10.207942 -0.272212 
				CHANNELS 3 Xrotation Zrotation Yrotation
				JOINT head
				{
					OFFSET 0.000000 3.130431 0.000000 
					CHANNELS 3 Xrotation Zrotation Yrotation
					End Site
					{
						OFFSET 0.000000 3.130435 0.000000 
					}
				}
			}
			JOINT lCollar
			{
				OFFSET 3.470700 6.669187 -0.816635 
				CHANNELS 3 Yrotation Zrotation Xrotation
				JOINT lShldr
				{
					OFFSET 3.198488 0.000000 0.000000 
					CHANNELS 3 Zrotation Yrotation Xrotation
					JOINT lForeArm
					{
						OFFSET 10.139888 0.000000 0.000000 
						CHANNELS 3 Yrotation Zrotation Xrotation
						JOINT lHand
						{
							OFFSET 8.370511 0.000000 0.000000 
							CHANNELS 3 Zrotation Yrotation Xrotation
							End Site
							{
								OFFSET 4.083176 0.000000 0.000000 
							}
						}
					}
				}
			}
			JOINT rCollar
			{
				OFFSET -3.470700 6.669187 -0.816635 
				CHANNELS 3 Yrotation Zrotation Xrotation
				JOINT rShldr
				{
					OFFSET -3.198488 0.000000 0.000000 
					CHANNELS 3 Zrotation Yrotation Xrotation
					JOINT rForeArm
					{
						OFFSET -10.139888 0.000000 0.000000 
						CHANNELS 3 Yrotation Zrotation Xrotation
						JOINT rHand
						{
							OFFSET -8.370511 0.000000 0.000000 
							CHANNELS 3 Zrotation Yrotation Xrotation
							End Site
							{
								OFFSET -4.083176 0.000000 0.000000 
							}
						}
					}
				}
			}
		}
	}
	JOINT lThigh
	{
		OFFSET 5.308129 -1.633274 1.361059 
		CHANNELS 3 Xrotation Zrotation Yrotation
		JOINT lShin
		{
			OFFSET -2.041588 -20.007561 0.000000 
			CHANNELS 3 Xrotation Zrotation Yrotation
			JOINT lFoot
			{
				OFFSET 0.000000 -19.190928 -1.224953 
				CHANNELS 3 Xrotation Yrotation Zrotation
				End Site
				{
					OFFSET 0.000000 -2.449906 4.627600 
				}
			}
		}
	}
	JOINT rThigh
	{
		OFFSET -5.308129 -1.633274 1.361059 
		CHANNELS 3 Xrotation Zrotation Yrotation
		JOINT rShin
		{
			OFFSET 2.041588 -20.007561 0.000000 
			CHANNELS 3 Xrotation Zrotation Yrotation
			JOINT rFoot
			{
				OFFSET 0.000000 -19.190928 -1.224953 
				CHANNELS 3 Xrotation Yrotation Zrotation
				End Site
				{
					OFFSET 0.000000 -2.449906 4.627600 
				}
			}
		}
	}
}
MOTION
Frames: 11
Frame Time: 0.033333
-0.739117 15.350006 0.352949 9.140626 11.621094 128.625015 41.728512 -0.166016 2.177734 -6.914062 -0.332031 0.937443 51.064453 8.115234 2.472081 -85.283203 -11.201171 59.882809 1.376953 30.000000 3.979492 -105.527344 -29.130859 -9.873047 -97.822266 0.380859 -2.910221 26.748045 39.970703 8.095704 1.962891 -30.000000 5.815431 100.429688 20.439451 -20.670416 108.300781 -1.455078 -2.988033 -45.703125 -38.876957 32.425510 -75.834305 5.282132 9.637191 39.770424 -3.992802 -3.402658 8.790970 -11.397169 -0.394999 -74.811501 -10.507865 -1.359042 35.184731 4.158103 2.860721 20.722162 3.596826 0.817404 
-0.739182 15.366207 0.352347 9.140626 11.621094 128.625015 41.728516 -0.029297 2.294922 -6.914062 -0.332031 0.937443 51.064453 8.115234 2.472081 -85.156250 -11.386720 60.117188 1.484375 30.000000 3.754883 -105.742188 -29.111328 -9.990234 -97.656250 0.009766 -3.212892 26.767578 39.892582 8.066406 2.158203 -30.000000 5.854494 100.253906 20.419924 -21.035158 108.496094 -1.289063 -3.007812 -45.507816 -38.886719 32.402344 -75.834305 5.282132 9.637191 39.770424 -3.992799 -3.402658 8.790965 -11.397169 -0.394999 -74.811501 -10.507865 -1.359042 35.184731 4.158102 2.860722 20.722162 3.596826 0.817404 
-0.740558 15.366207 0.351156 9.140626 11.621094 128.625015 41.728516 0.029297 2.128906 -6.914062 -0.332031 0.937443 51.064453 8.115234 2.472081 -85.156250 -11.386720 60.117188 1.484375 30.000000 3.754883 -105.546875 -29.091797 -10.200062 -97.646484 0.371094 -2.910153 26.064451 39.804688 7.744140 2.255860 -30.000000 6.069338 100.253906 20.419924 -21.035158 108.496094 -1.289063 -3.007812 -45.605469 -38.847652 32.626953 -75.825783 5.263092 9.789682 39.593624 -4.002440 -3.372257 8.886620 -11.463901 -0.589531 -74.811501 -10.507864 -1.359042 34.835205 4.176920 2.654242 20.740383 3.628613 0.659898 
-0.743003 15.368403 0.349478 9.140625 11.445313 128.781235 41.904297 0.029297 2.128906 -6.914062 -0.332031 0.937443 51.064453 8.115234 2.472081 -84.980469 -11.425782 60.253906 1.171875 30.000000 4.038086 -105.527344 -29.189451 -10.400392 -97.666016 -0.166016 -3.193333 26.582033 39.511723 8.150745 2.246094 -30.000000 6.059572 100.048828 20.576170 -20.758289 108.476563 -1.464844 -2.988032 -45.605469 -38.847652 32.626953 -75.831352 5.086291 9.927646 39.602623 -4.012256 -3.376362 8.881664 -11.654727 -0.300318 -74.811501 -10.507872 -1.359035 34.835575 4.176725 2.644485 20.700651 3.378556 1.087043 
-0.746271 15.388194 0.347442 9.140625 11.445313 128.781235 41.904297 0.029297 2.128906 -6.914062 -0.332031 0.937443 51.064453 8.115234 2.472081 -84.794922 -11.464844 60.398449 1.171875 30.000000 4.038086 -105.527344 -29.189451 -10.400392 -97.666016 -0.166016 -3.193333 26.894531 39.521484 8.398438 2.246094 -30.000000 6.059572 100.048828 20.576170 -20.758289 108.476563 -1.464844 -2.988032 -45.605469 -38.847652 32.626953 -75.831352 5.086291 9.927647 39.602623 -4.012256 -3.376362 8.881659 -11.654726 -0.300318 -74.811501 -10.507869 -1.359037 34.835205 4.176920 2.654242 20.698299 3.374105 1.074183 
-0.750119 15.394093 0.345150 9.140625 11.445313 128.781235 41.904297 0.029297 2.128906 -6.914062 -0.332031 0.937443 51.064453 8.115234 2.472081 -84.794922 -11.464844 60.398449 1.171875 30.000000 4.038086 -105.527344 -29.189451 -10.400392 -97.666016 -0.166016 -3.193333 27.109375 39.521484 8.427733 2.246094 -30.000000 6.059572 99.853516 20.585938 -20.791016 108.476563 -1.464844 -2.988032 -45.800781 -38.837891 32.640362 -75.831352 5.086291 9.927647 39.602623 -4.012257 -3.376361 8.881664 -11.654727 -0.300318 -74.620087 -10.682818 -1.405408 34.848255 4.194422 2.796026 20.873497 3.598840 0.813621 
-0.754307 15.406245 0.342720 9.140625 11.445313 128.781235 41.904297 0.029297 2.128906 -6.914062 -0.332031 0.761662 51.064453 8.115234 2.472081 -84.628906 -11.503905 60.359386 1.171875 30.000000 4.038086 -105.507813 -29.335939 -10.414942 -97.841797 -0.156250 -3.193359 27.539063 39.531254 8.521842 2.246094 -30.000000 6.059572 99.853516 20.585938 -20.791016 108.476563 -1.464844 -2.988032 -45.830082 -38.925781 32.236328 -75.831352 5.086291 9.927646 39.602623 -4.012256 -3.376361 8.881661 -11.654727 -0.300317 -74.620087 -10.682818 -1.405408 34.848255 4.194424 2.796026 20.873497 3.598840 0.813621 
-0.758591 15.418395 0.340267 9.140625 11.445313 128.605453 41.904297 0.029297 2.128906 -6.914062 -0.332031 0.761662 51.064453 8.115234 2.472081 -84.453125 -11.552734 60.505859 0.947266 30.000000 4.106446 -105.312500 -29.335939 -10.302735 -97.822266 0.380859 -2.910221 27.353514 39.765625 8.349608 2.246094 -30.000000 6.059572 99.853516 20.585938 -20.791016 108.476563 -1.464844 -2.988032 -45.917969 -38.720707 32.308350 -75.831352 5.086291 9.927644 39.415432 -4.011984 -3.380559 8.871966 -11.732154 -0.151620 -74.620087 -10.682817 -1.405408 34.848255 4.194423 2.796026 20.873783 3.619089 0.811529 
-0.762723 15.436561 0.337907 9.140625 11.445313 128.605453 41.904297 0.029297 2.128906 -6.914062 -0.332031 0.761662 51.064453 8.115234 2.472081 -84.248047 -11.445313 60.380859 0.947266 30.000000 4.106446 -105.312500 -29.335939 -10.302735 -97.998047 0.390625 -2.910219 27.460938 39.775391 8.160545 2.246094 -30.000000 6.059572 99.667961 20.605469 -20.810549 108.476563 -1.464844 -2.988032 -45.947262 -38.544922 32.249775 -75.634933 5.075713 9.946764 39.406597 -3.996174 -3.384153 8.817883 -11.484917 -0.206541 -74.631943 -10.692973 -1.238703 34.838753 4.184588 2.811760 20.733662 3.356870 0.944152 
-0.766464 15.467460 0.335743 9.140625 11.445313 128.605453 41.904297 0.029297 2.128906 -6.914062 -0.166016 0.800753 51.064453 8.115234 2.472081 -84.072266 -11.484376 60.341797 0.947266 30.000000 4.106446 -105.527344 -29.306641 -10.566407 -98.017578 -0.146484 -3.203125 28.261719 39.853516 8.707430 2.138672 -30.000000 5.830078 99.462891 20.624998 -20.683594 108.476563 -1.464844 -2.988032 -46.152344 -38.544922 32.288841 -75.654640 5.105155 9.760005 39.415955 -4.005775 -3.378475 8.903050 -11.627403 -0.290485 -74.613403 -10.507636 -1.364867 34.661327 4.184539 2.807229 20.715780 3.345295 0.922910 
-0.769569 15.478568 0.333914 9.140625 11.445313 128.605453 41.904297 -0.029297 2.294922 -6.914062 -0.166016 0.800753 51.064453 8.115234 2.472081 -84.072266 -11.484376 60.341797 0.947266 30.000000 4.106446 -105.527344 -29.306641 -10.566407 -98.017578 -0.146484 -3.203125 28.261719 39.853516 8.707430 2.138672 -30.000000 5.830078 99.462891 20.624998 -20.683594 108.476563 -1.464844 -2.988032 -46.347656 -38.554691 32.288830 -75.654640 5.105151 9.760006 39.415955 -4.005774 -3.378475 8.886112 -11.447464 -0.219106 -74.475319 -10.721885 -0.923372 34.675030 4.306480 2.368137 20.827684 3.572237 1.189932 
